<svg viewBox="0 0 424.98 424.98" xmlns="http://www.w3.org/2000/svg"><circle cx="212.49" cy="212.49" fill="#fff" r="211.49" stroke="#221f20" stroke-miterlimit="10" stroke-width="2"/><path d="m241.28 314.6c0 1.57-.88 2.36-2.64 2.36h-2.21q-1.32-.84-30-.83a109.93 109.93 0 0 0 -11 .55c-1.91.19-4.86.28-8.83.28-1.91 0-2.87-.83-2.87-2.5 0-1.48 1.91-2.32 5.74-2.5q8.82-.29 10.37-2.65c1-1.58 3.11-8.2 3.55-16.06 5.17-51.76 5.17-102.71.18-150a30.09 30.09 0 0 0 -3.3-11.86q-1.35-2.79-12.29-3.34-4.24-.24-4.25-2c0-1.46.89-2.2 2.67-2.2h26.13c2.22 0 10.41.1 16.79.28l8.45.09c2.37 0 3.55.42 3.55 2q0 2.11-9.83 2.63-5.58.28-6.81 2.5c-.82 1.49-1.38 2.72-3.17 11.67-5 47.44-4.66 98.63-.19 151.09 1.5 11.64 2.5 13.58 3.23 14.5q2.43 3.06 14.35 3.61a2.12 2.12 0 0 1 2.38 2.38z" fill="#221f20"/><path d="m207.49 225.33c-2.81-.29-.77 0-2.81-.29a117.79 117.79 0 0 1 -14.06-2.59c-7.61-2.26-14.7-5.09-20.37-9.42-9.47-7.95-12.84-17.37-13.37-27.46-.26-4.56 0 0-.49-13.68l-.75-21.32-.27-7.08c-.7-2.93-.2-2.2-2.34-5.74-2.61-4.59-8.09-6.61-14.5-6.79-5.22-.15-5.22-.15-7.72-.8-2-1-1.56-3.07.6-4.41 13.48-4.38 32.06-.82 38.65 7.4 3.22 3.76 2.81 8 3.56 12.15l3.47 38.28c1.07 5.45.66 11 2.6 16.41 3.26 9.15 10.9 15 24.21 17l3.59.59" fill="#221f20"/><path d="m217.49 225.33c2.81-.29.77 0 2.81-.29a117.79 117.79 0 0 0 14.06-2.59c7.61-2.26 14.7-5.09 20.37-9.42 9.47-7.95 12.84-17.37 13.37-27.46.26-4.56 0 0 .49-13.68l.75-21.32.27-7.08c.7-2.93.2-2.2 2.34-5.74 2.61-4.59 8.09-6.61 14.5-6.79 5.22-.15 5.22-.15 7.72-.8 2-1 1.55-3.07-.6-4.41-13.48-4.38-32.06-.82-38.65 7.4-3.22 3.76-2.81 8-3.56 12.15l-3.47 38.28c-1.07 5.45-.66 11-2.6 16.41-3.26 9.15-10.9 15-24.21 17l-3.59.59" fill="#221f20"/><ellipse cx="212.49" cy="212.49" fill="none" rx="160.4" ry="158.92" stroke="#221f20" stroke-miterlimit="10" stroke-width="2"/><ellipse cx="110.84" cy="371.01" fill="#221f20" rx="1.81" ry="1.78"/><ellipse cx="340.39" cy="350.8" fill="#221f20" rx="1.81" ry="1.78"/><ellipse cx="400.86" cy="217.22" fill="#221f20" rx="1.81" ry="1.78"/><ellipse cx="62.84" cy="106.73" fill="#221f20" rx="1.81" ry="1.78"/><ellipse cx="363.63" cy="108.22" fill="#221f20" rx="1.81" ry="1.78"/><path d="m66.64 101.89-3.9 5.58 5.5 3.83-.74 1.06-5.5-3.83-3.91 5.62-1.09-.74 3.91-5.62-5.43-3.79.74-1.07 5.46 3.81 3.89-5.58z" fill="none"/><g fill="#221f20"><path d="m98.28 83.72q.23.21-.15.6a6 6 0 0 1 -.48.44l-3.3 3.17-3.09 3.37a2.63 2.63 0 0 1 -.35.41c-.33.35-.59.43-.77.26s-.07-.53.38-1c1.46-1.53 2-2.43 1.76-2.71l-.28-.13-.88-.46-.49-.22q-1-.54-4.64-2.31l-5.37 5.51a39.32 39.32 0 0 0 3.23 6.17.57.57 0 0 0 .74.12c.07 0 .52-.44 1.36-1.19.5-.48.83-.65 1-.5s0 .48-.4.92c-.77.79-1.7 1.68-2.79 2.66-.27.24-.54.5-.8.77a5.37 5.37 0 0 0 -.7.89 2.19 2.19 0 0 1 -.28.37c-.24.24-.43.29-.59.14s0-.51.54-1.07a3.35 3.35 0 0 0 .89-1.41 2.07 2.07 0 0 0 -.28-1.39q-6.28-12.59-10-20.3a4.53 4.53 0 0 1 -.45-.91l-.36-.56c-.14-.24-.17-.4-.09-.49s.15 0 .28 0q1.34.64 5.69 2.58l17.04 7.65a1.73 1.73 0 0 0 1.25.2 5.61 5.61 0 0 0 1.49-1.15c.45-.43.75-.58.89-.43zm-13 1-5.2-2.36-4.78-2.24q1.8 3.87 4.87 9.84z"/><path d="m109.79 65s.15.23.55.8q1.17 1.74 2.37 3.27c.09.11.29.33.6.65a14.53 14.53 0 0 1 1 1.21l.2.26q.28.36.06.54c-.15.12-.39.08-.73-.11a3.63 3.63 0 0 0 -1.75-.6 9.07 9.07 0 0 1 -3.5 5.63 11.49 11.49 0 0 1 -9.17 2.51 13 13 0 0 1 -8.42-5.23 13.37 13.37 0 0 1 -3.2-9.23 10.44 10.44 0 0 1 4.26-7.89 11 11 0 0 1 2.49-1.57 12.34 12.34 0 0 1 2.91-.71 2.7 2.7 0 0 0 1.22-.36c.17-.13.22-.41.13-.83q-.25-1.08 0-1.26a.26.26 0 0 1 .41.05 2.46 2.46 0 0 1 .23.41 33.84 33.84 0 0 0 3.69 5.34c.28.36.41.59.4.69a.39.39 0 0 1 -.16.27c-.19.14-.45.06-.79-.25a12.14 12.14 0 0 0 -3.72-2.59 6 6 0 0 0 -6.14 1.15 5.81 5.81 0 0 0 -2.43 4.38q-.24 4.63 3.91 9.93 3.71 4.73 7.74 5.78a7 7 0 0 0 6.36-1.24 6.66 6.66 0 0 0 2.13-2.84 6.19 6.19 0 0 0 .32-3.43 14.45 14.45 0 0 0 -1.42-4c-.28-.51-.33-.83-.16-1s.39-.07.61.27z"/><path d="m124.5 43.74a.41.41 0 0 1 -.14.63c-.24.14-.58 0-1-.5l-.78-1a6.36 6.36 0 0 0 -1.83-1.47 3.57 3.57 0 0 0 -2.91 0 7.48 7.48 0 0 0 -1.64.77c-1 .6-1.53 1-1.73 1.1l11.07 18.72c.44.74.91 1.09 1.41 1a6.46 6.46 0 0 0 1.85-.84c.26-.12.43-.11.52 0s0 .36-.34.55a2.4 2.4 0 0 1 -.45.23c-1.26.69-2.15 1.19-2.67 1.49-.68.41-1.31.8-1.89 1.19s-1.34.85-2.27 1.4c-.47.28-.76.34-.86.17s.28-.55 1.15-1.1c.64-.37 1-.75 1-1.13a3.44 3.44 0 0 0 -.6-1.37l-10.99-18.58a18.1 18.1 0 0 0 -3.63 2.56q-1.53 1.88 0 5.17c.31.65.35 1 .12 1.18s-.5 0-.76-.43a7.74 7.74 0 0 1 -.37-.7l-.36-.75c-.5-1-1.14-2.29-1.94-3.91l1.4-.83 6.37-3.64c.76-.42 1.92-1.1 3.47-2l5.09-3.14q1.09 1.7 3.45 4.91a.92.92 0 0 0 .17.21z"/><path d="m132.35 36.37a4.07 4.07 0 0 1 -.26 4.35 5 5 0 0 1 -1.82 1.77q-.36.18-.48-.09c-.08-.15 0-.32.23-.51a5.4 5.4 0 0 0 1.61-2 2.56 2.56 0 0 0 -.22-2 2.8 2.8 0 0 0 -1.13-1.3q.53 1.11-.87 1.77a1.77 1.77 0 0 1 -1.42.09 1.68 1.68 0 0 1 -1-.93 2 2 0 0 1 -.06-1.67 2.33 2.33 0 0 1 1.22-1.27 2.82 2.82 0 0 1 2.39-.07 3.44 3.44 0 0 1 1.81 1.86z"/><path d="m163.63 46.64c.35.94-.27 1.7-1.85 2.28a5 5 0 0 1 -4.93-.7 5.47 5.47 0 0 1 -1.49-1.52c-.34-.54-1.07-2-2.18-4.27a4.38 4.38 0 0 0 -2.51-2.55 7.13 7.13 0 0 0 -4.2.44l3.88 10.68c.16.45.62.6 1.39.45.21-.05.73-.21 1.58-.49.29-.11.47-.07.54.11s-.09.37-.47.51l-.4.15-3 1.07-1.72.63-1.56.56-1.32.48c-.5.18-.78.17-.85 0s.23-.37.88-.63c1.05-.41 1.58-.75 1.58-1a3.74 3.74 0 0 0 -.35-1.37l-6.8-18.67c-.32-.91-.62-1.41-.87-1.52a3.56 3.56 0 0 0 -1.86.33c-.56.2-.88.2-.95 0s.05-.4.42-.53a1.66 1.66 0 0 1 .31-.08l4.54-1.54c.45-.16 1.07-.41 1.88-.73s1.5-.65 1.86-.78a8.5 8.5 0 0 1 5.5-.41 4.82 4.82 0 0 1 3.32 3.04 5.15 5.15 0 0 1 -.48 4.6 9.8 9.8 0 0 1 -4.52 3.68c-.19.09-.29.17-.3.22s.16.1.39 0c2.51-.46 4.45-.22 5.79.71s2.77 3 4.26 6.16q1.28 2.67 2.9 2.09c.34-.13.48-.26.44-.39a.17.17 0 0 0 -.06-.06 1.46 1.46 0 0 1 -.39-.54.68.68 0 0 1 .48-1 .77.77 0 0 1 1.12.59zm-13.17-14.4q-1.76-4.84-6-3.31a2.91 2.91 0 0 0 -1.41.85 1.38 1.38 0 0 0 0 1.23l3.13 8.6q3.25-1.15 4.25-2.89a5.19 5.19 0 0 0 .03-4.48z"/><path d="m188 42.06c.05.21-.15.36-.6.46l-4.82 1-1.43.31-1.4.3c-.46.1-.71.05-.75-.13s.47-.44 1.55-.74c.57-.17.88-.34.94-.51a5.07 5.07 0 0 0 -.21-1.66l-2.19-10.26-10.59 2.26 2.12 10a3.91 3.91 0 0 0 .65 1.81 3.11 3.11 0 0 0 1.74 0c.62-.09.94 0 1 .12s-.17.36-.64.46l-.31.07-1.78.38-1.11.24-1.48.31-3 .63c-.47.1-.72.06-.76-.13s.17-.35.63-.5l.93-.27c.51-.16.81-.35.91-.56a8.43 8.43 0 0 0 -.31-2l-4-18.57a6 6 0 0 0 -.56-1.83c-.14-.16-.54-.19-1.17-.08s-1.18.16-1.31.17-.22-.08-.26-.26.09-.33.39-.39l.61-.09c.6-.08 2-.35 4.17-.82 1.2-.26 2-.45 2.49-.59a2.76 2.76 0 0 1 .62-.18c.42-.1.66 0 .71.21s-.31.4-1.08.56-1.2.35-1.31.56a3.33 3.33 0 0 0 .13 1.73l1.73 8.12 10.64-2.19-1.62-7.59a4.76 4.76 0 0 0 -.76-2.15c-.23-.18-.91-.14-2 .12-.35.08-.55 0-.6-.2s.13-.36.53-.45h.18l1.72-.37 1.9-.4 2.91-.62 1-.21c.49-.1.76 0 .8.16s-.44.44-1.47.68a2.39 2.39 0 0 0 -.65.22.61.61 0 0 0 -.36.48 8.68 8.68 0 0 0 .26 1.67l4 18.73a5.88 5.88 0 0 0 .6 1.94c.28.21 1 .19 2.1 0 .3-.24.5-.19.57.05z"/><path d="m218.53 32.84s0 .28-.05 1c-.06 1.39-.08 2.73 0 4a8.35 8.35 0 0 0 .09.88 13.7 13.7 0 0 1 .11 1.6v.32c0 .32-.09.47-.28.48s-.36-.17-.52-.53a3.67 3.67 0 0 0 -1-1.52 9.1 9.1 0 0 1 -6.17 2.4 11.51 11.51 0 0 1 -8.93-3.47 13 13 0 0 1 -3.68-9.22 13.36 13.36 0 0 1 3-9.31 10.51 10.51 0 0 1 8.15-3.76 11.12 11.12 0 0 1 2.94.24 12 12 0 0 1 2.74 1.18 2.84 2.84 0 0 0 1.2.44c.22 0 .41-.2.6-.59.3-.68.54-1 .73-1a.26.26 0 0 1 .3.28 2.82 2.82 0 0 1 -.06.47 33.61 33.61 0 0 0 -.25 6.49 1.59 1.59 0 0 1 -.09.8.4.4 0 0 1 -.29.11c-.24 0-.4-.22-.48-.67a12.47 12.47 0 0 0 -1.43-4.26 6 6 0 0 0 -5.61-2.75 5.79 5.79 0 0 0 -4.55 2.01q-3 3.55-2.83 10.29.13 6 2.73 9.26a7 7 0 0 0 5.89 2.75 6.65 6.65 0 0 0 3.4-1 6.23 6.23 0 0 0 2.32-2.56 14.38 14.38 0 0 0 1.24-4c.09-.58.24-.87.45-.88s.33.16.33.52z"/><path d="m246.24 31.44a13.31 13.31 0 0 1 -4.24 8.61 10.06 10.06 0 0 1 -8.3 2.73 10.78 10.78 0 0 1 -7.88-4.78 13.31 13.31 0 0 1 -2.24-9.61 13.15 13.15 0 0 1 4.34-8.74 10.76 10.76 0 0 1 8.71-2.55 10.21 10.21 0 0 1 7.51 4.69 13.67 13.67 0 0 1 2.1 9.65zm-4-.31q.79-6.55-1.44-10.54a5.52 5.52 0 0 0 -4.41-2.86 5.69 5.69 0 0 0 -4.64 1.21q-3.28 2.88-4.17 10.15-.7 5.77.93 9.21a6.39 6.39 0 0 0 5.27 3.88 5.58 5.58 0 0 0 5.48-2.39 18.25 18.25 0 0 0 2.96-8.66z"/><path d="m275.28 26.32c-.07.23-.39.26-1 .07l-.76-.2-.63-.18c-.37-.1-.6-.09-.71 0a3.71 3.71 0 0 0 -.42 1.13l-5.46 20c-.34 1.23-.55 1.94-.63 2.14s-.17.29-.29.26-.26-.21-.38-.52l-2.66-7.71q-2.29-6.75-5.5-16.77l-5.28 19.46a.63.63 0 0 0 .37.72 15.38 15.38 0 0 0 2.31.8c.3.08.43.21.38.4s-.4.26-1 .1c-.21-.06-.86-.27-2-.65l-1.02-.37-.62-.09a20.35 20.35 0 0 1 -2-.47l-.34-.09c-.54-.15-.77-.33-.72-.54s.32-.25.78-.12a7 7 0 0 0 2.45.39c.27-.09.51-.55.74-1.39l4.69-17.14c.52-1.93.46-3.24-.19-3.94a4.23 4.23 0 0 0 -1.89-.89c-.6-.17-.87-.37-.8-.61s.26-.28.61-.19 1.05.31 1.75.55l1.13.39 1 .23a22.37 22.37 0 0 0 2.25.5l7.09 21.16 4.23-15.45c.19-.72.3-1.15.32-1.31a.46.46 0 0 0 -.18-.42 6 6 0 0 0 -1.64-.58c-.83-.23-1.22-.45-1.16-.66s.37-.27.93-.12l1.21.34 1 .26.66.18.63.17 1 .29 1.08.29c.51.16.73.35.67.58z"/><path d="m287.77 50.45a6.94 6.94 0 0 1 -4.19 4 8.08 8.08 0 0 1 -6.07-.15 11.79 11.79 0 0 1 -3.84-2.87 3 3 0 0 0 -.88-.71c-.26-.11-.56.13-.88.72-.15.31-.36.41-.62.3s-.28-.27-.17-.54a1.71 1.71 0 0 1 .2-.39 30.78 30.78 0 0 0 1.81-3.65c.09-.22.33-.85.7-1.89 0-.14.1-.32.19-.55s.34-.44.61-.33.26.42.13 1q-1.61 6.35 3.16 8.3a4.51 4.51 0 0 0 3.62.15 4.88 4.88 0 0 0 2.46-2.84 5.24 5.24 0 0 0 .23-3.62 12.14 12.14 0 0 0 -2.64-4.14 15.07 15.07 0 0 1 -3.14-4.84 5.91 5.91 0 0 1 .26-4.14 6.69 6.69 0 0 1 3.66-3.82 6.57 6.57 0 0 1 5.25.06 10.23 10.23 0 0 1 2.82 2 3.5 3.5 0 0 0 .92.69.69.69 0 0 0 .54.07 2 2 0 0 0 .5-.61.38.38 0 0 1 .5-.18c.22.09.28.27.17.53a1.71 1.71 0 0 1 -.2.39 17.27 17.27 0 0 0 -.89 1.89 16.54 16.54 0 0 0 -.88 2.6l-.19.54c-.07.26-.22.34-.45.25s-.3-.43-.18-1a6.38 6.38 0 0 0 -.38-4 4.64 4.64 0 0 0 -2.52-2.57 3.68 3.68 0 0 0 -3.08 0 4.43 4.43 0 0 0 -2.18 2.49 4.78 4.78 0 0 0 0 4 18.75 18.75 0 0 0 2.61 3.49 15.32 15.32 0 0 1 3.18 5 6 6 0 0 1 -.14 4.37z"/><path d="m307 62.2-.92 1.5c-.57.92-1.09 1.81-1.57 2.67l-.57 1q-3-1.91-12.11-7l-2.17-1.21-1.45-.8-.31-.17c-.4-.23-.55-.42-.46-.59a.22.22 0 0 1 .3-.09c.06 0 .47.23 1.24.58.57.26 1 .33 1.19.2a4.31 4.31 0 0 0 1-1.39l9.83-17.67q.51-.91.33-1.23a5.11 5.11 0 0 0 -1.61-1.13c-.34-.19-.46-.37-.36-.55s.38-.14.84.12l5.38 3 3.56 2 4.41 2.44a12 12 0 0 0 1.8.84q-.69 1.38-1.8 3.9l-.64 1.38a2.1 2.1 0 0 1 -.19.43c-.12.21-.27.26-.46.16s-.25-.49-.06-1.07q1-3.18.05-4.7-.69-1.12-5-3.51l-2.58-1.43-5.14 9.25.75.42q3.53 2 4.6 1.85c.71-.07 1.64-.91 2.78-2.53.29-.41.53-.57.72-.46s.24.38 0 .75-.54.93-1 1.64-.78 1.25-1 1.63q-1.87 3.38-2.47 4.68c-.1.22-.19.41-.27.55s-.35.35-.58.22a.35.35 0 0 1 -.14-.43 19.22 19.22 0 0 1 .7-1.9 2.87 2.87 0 0 0 -.26-3.15 14.79 14.79 0 0 0 -2.84-1.82l-1.41-.79-5.85 10.55a70.47 70.47 0 0 0 8.27 4.23q2.34.69 4.57-2.67c.33-.49.61-.68.84-.55s.27.41.06.85z"/><path d="m313.78 73.7c-.11.17-.29.17-.53 0l-.29-.2a45.43 45.43 0 0 0 -4-2.87c-.5-.34-1-.67-1.53-1-.27-.15-.67-.42-1.2-.78-.26-.18-.33-.36-.2-.54s.42-.07.95.27c.81.52 1.33.75 1.59.68s.72-.6 1.39-1.57l10.81-15.59a5.25 5.25 0 0 0 1-1.74q0-.42-1.41-1.5-.54-.42-.42-.6c.11-.16.28-.15.52 0l4 2.78 1.71 1.23 1.16.75c.32.22.42.42.3.58s-.61-.06-1.51-.63c-.52-.32-.88-.44-1.1-.36a3.3 3.3 0 0 0 -1 1.13l-10.93 15.83a6.44 6.44 0 0 0 -1.09 1.94c.07.37.62.94 1.66 1.72.19.15.24.31.12.47z"/><path d="m332 85.27c-.4.48-1.09 1.24-2.07 2.3l-.3-.25c-.11-.1-.36-.34-.75-.73s-.86-.81-1.39-1.26l-11.38-9.69c-.31-.26-.39-.48-.26-.64s.43 0 1 .37a3.44 3.44 0 0 0 1.45.82c.24 0 .59-.29 1.07-.86l13-15.49c.58-.68.84-1.13.79-1.36s-.49-.69-1.33-1.4c-.35-.3-.44-.54-.27-.75s.32-.15.54 0l.25.21c.56.57 1.74 1.6 3.54 3.12.16.14.5.39 1 .77s.9.69 1.22.95l.3.25c.33.28.42.51.26.7a.25.25 0 0 1 -.32.08 9.55 9.55 0 0 1 -1-.73q-.82-.65-1.17-.54a4.92 4.92 0 0 0 -1.37 1.32l-13.7 16.29c.48.44 1.17 1 2.05 1.77a28.52 28.52 0 0 0 4.84 3.48 3.35 3.35 0 0 0 2.84.26 8 8 0 0 0 2.61-2c.22-.22.42-.25.62-.09s.22.42 0 .68l-.58.69-.21.25c-.11.13-.22.25-.32.38z"/><path d="m347.4 95.4a6.94 6.94 0 0 1 -5.4 1.92 8.07 8.07 0 0 1 -5.49-2.61 11.9 11.9 0 0 1 -2.33-4.19 2.72 2.72 0 0 0 -.51-1c-.2-.21-.56-.12-1.09.29-.27.22-.5.22-.7 0s-.14-.36.07-.55a1.29 1.29 0 0 1 .33-.27 30.32 30.32 0 0 0 3.15-2.6c.18-.16.65-.64 1.42-1.44a3.31 3.31 0 0 1 .39-.42q.39-.37.69-.06c.16.18.07.5-.29 1q-4.05 5.13-.5 8.87a4.49 4.49 0 0 0 3.24 1.61 4.83 4.83 0 0 0 3.37-1.54 5.23 5.23 0 0 0 1.69-3.22 12.26 12.26 0 0 0 -.71-4.85 15.19 15.19 0 0 1 -.9-5.71 5.9 5.9 0 0 1 1.88-3.63 6.69 6.69 0 0 1 4.91-2 6.55 6.55 0 0 1 4.76 2.2 10 10 0 0 1 1.73 3 3.86 3.86 0 0 0 .56 1 .73.73 0 0 0 .47.28 2 2 0 0 0 .71-.35.38.38 0 0 1 .53 0c.16.17.14.36-.07.56a2.46 2.46 0 0 1 -.31.31 15 15 0 0 0 -1.59 1.36 15.4 15.4 0 0 0 -1.86 2l-.4.42c-.17.2-.34.21-.51 0s-.1-.51.23-1a6.4 6.4 0 0 0 1.29-3.8 4.71 4.71 0 0 0 -1.25-3.38 3.69 3.69 0 0 0 -2.81-1.28 4.41 4.41 0 0 0 -3 1.38 4.76 4.76 0 0 0 -1.63 3.68 19.63 19.63 0 0 0 1 4.25 15.19 15.19 0 0 1 .85 5.89 6 6 0 0 1 -1.92 3.88z"/></g><path d="m367.2 114.64-3.87-5.59-5.51 3.81-.74-1.07 5.51-3.81-3.89-5.62 1.06-.74 3.89 5.62 5.48-3.79.74 1.07-5.48 3.79 3.88 5.59z" fill="none"/><path d="m23.65 224.83-.18-6.27-6.16.18v-1.19l6.17-.18-.18-6.3h1.19l.18 6.3 6.14-.18v1.2l-6.13.17.17 6.27z" fill="none"/><path d="m22.32 253.59-1.61.2c-1 .12-1.93.26-2.83.41l-1.08.18c-.22-2.16-.87-6.4-1.92-12.73-.13-.76-.26-1.51-.38-2.26s-.21-1.24-.25-1.5l-.06-.33c-.06-.41 0-.63.16-.66a.2.2 0 0 1 .24.16c0 .07.11.47.3 1.23.14.56.31.88.53 1a4 4 0 0 0 1.57-.08l18.44-3.08c.63-.11 1-.26 1.09-.47a5 5 0 0 0 -.12-1.81c-.06-.35 0-.54.19-.57s.32.19.4.67l.93 5.6c0 .19.24 1.42.62 3.69s.63 3.8.76 4.58a11.3 11.3 0 0 0 .44 1.78c-.94.2-2.22.51-3.85.94l-1.38.37a2.61 2.61 0 0 1 -.42.1c-.22 0-.35 0-.38-.24s.21-.46.74-.66c1.9-.74 3-1.63 3.41-2.65.28-.77.17-2.63-.32-5.6l-.45-2.68-9.62 1.61.13.78c.41 2.44.84 3.9 1.3 4.38s1.6.65 3.43.55c.46 0 .71.05.74.24s-.13.4-.53.46-1 .14-1.74.23-1.35.16-1.75.22c-2.33.39-3.93.69-4.79.91l-.55.12c-.28 0-.44-.05-.48-.29s.05-.27.22-.35a18.35 18.35 0 0 1 1.77-.58c1.26-.39 2-1.06 2.12-2a13.63 13.63 0 0 0 -.31-3.09l-.25-1.47-11 1.83a63.81 63.81 0 0 0 1.7 8.39c.56 1.39 2.08 2 4.54 1.77.55-.05.84 0 .88.29s-.12.33-.58.41z" fill="#221f20"/><path d="m30.33 274.86-.87.19c-1.26.27-2.46.57-3.61.9-.13 0-.38.13-.76.29s-.85.31-1.4.47l-.29.08c-.27.08-.44 0-.49-.13s.07-.37.35-.59a3.49 3.49 0 0 0 1.12-1.28 8.44 8.44 0 0 1 -3.6-4.94 10.61 10.61 0 0 1 1-8.7 12 12 0 0 1 7.35-5.45 12.31 12.31 0 0 1 9 .46 9.66 9.66 0 0 1 5.27 6.37 9.87 9.87 0 0 1 .48 2.68 11.53 11.53 0 0 1 -.4 2.72 2.35 2.35 0 0 0 -.11 1.17q.07.28.66.39c.68.11 1 .25 1.09.42a.23.23 0 0 1 -.18.32 1.76 1.76 0 0 1 -.44.06 31.55 31.55 0 0 0 -5.83 1.3c-.41.12-.65.16-.73.11a.37.37 0 0 1 -.17-.23c-.06-.21.1-.41.48-.59a11.24 11.24 0 0 0 3.46-2.27 5.55 5.55 0 0 0 1.14-5.61 5.32 5.32 0 0 0 -2.9-3.58q-3.87-1.81-9.83-.1-5.32 1.53-7.61 4.61a6.44 6.44 0 0 0 -1.06 5.9 6.07 6.07 0 0 0 1.69 2.79 5.64 5.64 0 0 0 2.86 1.43 13.15 13.15 0 0 0 3.88.16c.53-.06.83 0 .88.2s-.11.36-.43.45z" fill="#221f20"/><path d="m43.85 297a12.28 12.28 0 0 1 -8.84.6 9.26 9.26 0 0 1 -6-5.32 9.88 9.88 0 0 1 .12-8.43 12.3 12.3 0 0 1 6.59-6.26 12.13 12.13 0 0 1 9-.62 10 10 0 0 1 6.08 5.74 9.37 9.37 0 0 1 -.22 8.15 12.59 12.59 0 0 1 -6.73 6.14zm-1.63-3.34q5.6-2.42 7.71-6.05a5.07 5.07 0 0 0 .23-4.83 5.27 5.27 0 0 0 -3.16-3.16q-3.83-1.28-10 1.41c-3.28 1.42-5.57 3.1-6.89 5a5.9 5.9 0 0 0 -.62 6 5.12 5.12 0 0 0 4.51 3.27 16.67 16.67 0 0 0 8.22-1.67z" fill="#221f20"/><path d="m65.94 312.24c-.16.09-.34 0-.54-.37l-.34-.57-.24-.4c-.28-.48-.57-.69-.88-.64a3.2 3.2 0 0 0 -.68.34l-10.67 6.4q-4.16 2.48-7 2.05t-4.87-3.87q-2.46-4.12-1.13-7.2.9-2 4.49-4.19l11.42-6.81a.87.87 0 0 0 .21-1.07c-.05-.12-.25-.49-.6-1.08-.16-.35-.16-.57 0-.66s.33 0 .49.25l.31.51.39.65.49.83 2.43 4.07.21.34c.19.33.18.55 0 .67a.23.23 0 0 1 -.33 0c-.09-.1-.33-.47-.73-1.11a2.11 2.11 0 0 0 -.38-.5.54.54 0 0 0 -.59-.08c-.09 0-.63.34-1.64.94l-10.18 6.07q-3.76 2.19-4.41 4.19a5.21 5.21 0 0 0 .76 4.38q2.58 4.32 7.83 2c.53-.23 2.63-1.45 6.3-3.64l1.62-1 2.32-1.37 2-1.17.62-.37.31-.19a.81.81 0 0 0 .42-1 7.14 7.14 0 0 0 -.63-1.19c-.23-.38-.23-.63 0-.75s.34 0 .5.25l.22.37 1.48 2.47.42.72c.15.24.26.42.32.54l.26.42c.14.4.19.67.02.77z" fill="#221f20"/><path d="m73.1 330.73a.37.37 0 0 1 -.58-.06c-.16-.21 0-.53.34-1l.87-.83a5.74 5.74 0 0 0 1.14-1.84 3.26 3.26 0 0 0 -.29-2.67 7.45 7.45 0 0 0 -.87-1.42l-1.2-1.46-15.9 12.18c-.64.49-.9 1-.81 1.41a5.93 5.93 0 0 0 1 1.6c.14.22.15.38 0 .49s-.33 0-.54-.25a2.39 2.39 0 0 1 -.26-.39c-.77-1.08-1.32-1.84-1.66-2.28s-.87-1.11-1.29-1.6-.93-1.13-1.53-1.92c-.31-.4-.4-.66-.26-.77s.54.19 1.14.93c.41.55.8.81 1.14.79a3.29 3.29 0 0 0 1.19-.69l15.79-12.1a15.93 15.93 0 0 0 -2.75-3c-1.25-.79-2.82-.62-4.73.53-.56.36-.92.43-1.07.24s-.06-.46.31-.74l.6-.42.65-.41c.85-.56 2-1.3 3.37-2.2l.9 1.18 4 5.44c.46.64 1.22 1.62 2.26 2.94l3.42 4.31q-1.42 1.18-4.1 3.69a.76.76 0 0 0 -.18.18z" fill="#221f20"/><path d="m78 353.06-1.22 1.08c-.75.65-1.45 1.29-2.11 1.92l-.79.75q-2.1-2.49-8.74-9.45l-1.57-1.65-1.06-1.11-.23-.24c-.29-.3-.37-.52-.24-.64a.2.2 0 0 1 .29 0l.93.85q.65.58 1 .51a3.94 3.94 0 0 0 1.26-.95l13.53-12.9c.46-.44.67-.78.63-1a4.83 4.83 0 0 0 -1.11-1.43c-.25-.26-.3-.45-.16-.58s.37 0 .7.33l3.92 4.11 2.58 2.71 3.21 3.36a10.75 10.75 0 0 0 1.37 1.27c-.66.69-1.54 1.67-2.65 2.94l-.94 1.06a2.53 2.53 0 0 1 -.29.32c-.16.15-.31.16-.45 0s-.08-.49.24-1q1.74-2.52 1.34-4.11-.3-1.19-3.41-4.45l-1.88-2-7.06 6.72.55.58q2.56 2.69 3.54 2.89c.64.13 1.69-.36 3.14-1.47.36-.28.62-.36.75-.21s.11.4-.18.67-.72.67-1.31 1.17-1 .89-1.32 1.16c-1.71 1.64-2.87 2.78-3.46 3.45a3.76 3.76 0 0 1 -.39.4c-.2.2-.39.21-.56 0a.32.32 0 0 1 0-.42c.1-.17.48-.66 1.14-1.48a2.63 2.63 0 0 0 .63-2.84 13.3 13.3 0 0 0 -2-2.38l-1-1.08-8 7.67a64.37 64.37 0 0 0 6.12 6c1.24.83 2.82.46 4.75-1.09.42-.35.72-.43.89-.26s-.01.5-.38.82z" fill="#221f20"/><path d="m91.94 370.72c-.6.71-1.49.56-2.67-.44a4.6 4.6 0 0 1 -1.7-4.26 5.13 5.13 0 0 1 .53-1.89c.28-.51 1.08-1.75 2.41-3.69a4.07 4.07 0 0 0 .9-3.17 6.73 6.73 0 0 0 -2.28-3.17l-6.74 8q-.44.51.27 1.32c.14.15.52.49 1.13 1q.33.27.15.48c-.12.15-.33.1-.62-.14l-.3-.26-2.21-1.86-1.29-1.09-1.16-1-1-.84c-.37-.31-.49-.54-.37-.7s.41 0 .91.42c.81.66 1.32.92 1.55.79s.45-.33.93-.9l11.82-14c.57-.67.84-1.14.81-1.39s-.4-.7-1.11-1.33c-.42-.36-.57-.61-.44-.77s.35-.14.62.09a1.58 1.58 0 0 1 .2.22l3.31 2.92c.34.29.82.68 1.45 1.17s1.2.9 1.47 1.13a7.91 7.91 0 0 1 2.85 4.21 4.44 4.44 0 0 1 -1 4 4.73 4.73 0 0 1 -3.89 1.73 8.94 8.94 0 0 1 -5-1.9c-.17-.11-.28-.16-.32-.14s0 .18.17.32c1.51 1.8 2.21 3.46 2.08 5s-1.12 3.58-3 6.22q-1.56 2.25-.35 3.28c.26.21.43.27.51.17a.11.11 0 0 0 0-.08 1.54 1.54 0 0 1 .26-.56.64.64 0 0 1 1-.06.73.73 0 0 1 .12 1.17zm5.48-17.12q3.06-3.63-.08-6.28a2.66 2.66 0 0 0 -1.34-.74 1.25 1.25 0 0 0 -1 .56l-5.44 6.43q2.42 2.08 4.26 2.08a4.84 4.84 0 0 0 3.6-2.05z" fill="#221f20"/><path d="m117.42 376.14-5.3-3.35-3.3 5.22-1-.64 3.3-5.21-5.33-3.37.64-1 5.33 3.37 3.24-5.16 1 .64-3.27 5.18 5.29 3.35z" fill="none"/><path d="m136.79 389.52-.45.77c-.64 1.12-1.22 2.21-1.75 3.29-.05.11-.15.37-.29.76s-.34.83-.59 1.35l-.13.27c-.13.26-.27.35-.43.27s-.22-.29-.2-.65a3.44 3.44 0 0 0 -.21-1.69 8.42 8.42 0 0 1 -6.07-.63 10.67 10.67 0 0 1 -5.77-6.6 12 12 0 0 1 .88-9.1 12.37 12.37 0 0 1 6.36-6.37 9.67 9.67 0 0 1 8.26.36 10.73 10.73 0 0 1 2.31 1.43 12.25 12.25 0 0 1 1.75 2.13 2.55 2.55 0 0 0 .79.87c.18.08.43 0 .74-.23.53-.43.87-.61 1-.53a.23.23 0 0 1 .13.35 3.08 3.08 0 0 1 -.25.36 31.19 31.19 0 0 0 -3 5.21c-.18.37-.32.58-.4.61a.37.37 0 0 1 -.29 0c-.2-.09-.23-.35-.11-.75a11.17 11.17 0 0 0 .63-4.09 5.58 5.58 0 0 0 -3.43-4.62 5.35 5.35 0 0 0 -4.6-.25q-3.94 1.67-6.66 7.23-2.43 5-1.68 8.74a6.43 6.43 0 0 0 3.67 4.74 6.09 6.09 0 0 0 3.2.62 5.64 5.64 0 0 0 3-1.12 13.25 13.25 0 0 0 2.72-2.77c.31-.44.55-.61.73-.52s.29.26.14.56z" fill="#221f20"/><path d="m162.27 394.3a12.25 12.25 0 0 1 -5.48 7 9.27 9.27 0 0 1 -8 .91 9.94 9.94 0 0 1 -6.19-5.74 12.32 12.32 0 0 1 -.22-9.09 12.13 12.13 0 0 1 5.55-7.07 9.92 9.92 0 0 1 8.33-.67 9.4 9.4 0 0 1 5.91 5.63 12.6 12.6 0 0 1 .1 9.03zm-3.57-1q1.94-5.76.67-9.77a5.09 5.09 0 0 0 -3.44-3.41 5.23 5.23 0 0 0 -4.41.23q-3.51 2-5.66 8.38-1.71 5.07-.89 8.48a5.92 5.92 0 0 0 4 4.48 5.14 5.14 0 0 0 5.38-1.13 16.69 16.69 0 0 0 4.35-7.29z" fill="#221f20"/><path d="m187.15 410.71c0 .19-.28.24-.74.15l-.35-.07-1.66-.31-1.85-.35-2.27-.43-1.76-.34h-.22q-.69-.13-.63-.42c0-.22.38-.27 1-.15a3.39 3.39 0 0 0 2.09 0 6.51 6.51 0 0 0 .57-2.15l3.21-16.9s-.21.37-.61 1.06q-2.06 3.69-6 11.13l-2.5 4.9c-.5 1-.81 1.44-.94 1.41s-.27-.32-.34-.88q-.37-3.13-2.51-15.8l-.64-3.73c-.08.42-.18 1-.32 1.7l-2 10.58q-1.12 6-1 6.05c.09.31.59.55 1.48.72.72.14 1 .31 1 .53s-.29.32-.75.23a4.11 4.11 0 0 1 -.77-.21 5.45 5.45 0 0 0 -.8-.22l-3.77-.58c-.39-.08-.57-.21-.53-.41s.68-.22 1.92 0c.52.1.84.07 1-.08a6.25 6.25 0 0 0 .46-1.68l3-15.62a28.89 28.89 0 0 0 .49-2.95.91.91 0 0 0 -.43-.73 8.57 8.57 0 0 0 -1.78-.61c-.34-.08-.5-.21-.46-.39s.38-.3 1-.17l.56.1 1.71.33c1.3.24 2.21.41 2.74.49.06.3.36 2.13.92 5.49q.38 2.08 2 12.2c.68-1.34 1.36-2.65 2.06-3.94l5.52-10.1c.33-.58.62-1.06.87-1.43l4.84.88a4.34 4.34 0 0 1 1.2.33.34.34 0 0 1 .11.33c0 .21-.25.29-.62.22a7.55 7.55 0 0 0 -1.25-.17 1.61 1.61 0 0 0 -1.17.32 18.83 18.83 0 0 0 -.89 3.79l-3.02 15.17c-.16.88-.17 1.4 0 1.59a4.73 4.73 0 0 0 2.06.7h.2c.42.1.6.24.57.42z" fill="#221f20"/><path d="m207.53 394.75a5.66 5.66 0 0 1 -3.1 4.8 7.82 7.82 0 0 1 -4.45.81 15.9 15.9 0 0 1 -2.53-.41l-.67 9.4a4.06 4.06 0 0 0 0 1 .86.86 0 0 0 .69.61 12.39 12.39 0 0 0 1.84.27c.24 0 .36.1.35.26s-.18.31-.49.29h-.33l-6.85-.49h-.43c-.66-.05-1-.18-1-.4s.25-.22.72-.18c1 .07 1.63 0 1.8-.17s.3-.29.35-.65l1.39-19.54c.05-.68-.11-1.12-.48-1.3a3.58 3.58 0 0 0 -1.14-.21h-.33-.24c-.33 0-.49-.13-.47-.3s.33-.28.94-.23l7.28.51q3.78.27 5.43 1.72a5 5 0 0 1 1.72 4.21zm-3.48-.21c.24-3.33-1-5.1-3.81-5.29a2.51 2.51 0 0 0 -1.85.33 1.59 1.59 0 0 0 -.27 1l-.63 8.86.59.07a6.83 6.83 0 0 0 3.77-.7q1.98-1.04 2.2-4.27z" fill="#221f20"/><path d="m228.26 410.78c0 .93-.73 1.41-2.27 1.46a4.62 4.62 0 0 1 -4.11-2 5.09 5.09 0 0 1 -.87-1.77c-.13-.57-.36-2-.67-4.36a4 4 0 0 0 -1.44-3 6.66 6.66 0 0 0 -3.81-.83l.3 10.44c0 .44.37.71 1.09.8h1.52c.29 0 .44.08.44.25s-.18.31-.55.32h-.4l-2.89.08-1.69.05-1.52.05h-1.29c-.49 0-.74-.08-.74-.28s.31-.25.95-.29c1-.05 1.6-.2 1.68-.44a3.17 3.17 0 0 0 .1-1.3l-.53-18.3c0-.88-.14-1.41-.33-1.58a3.2 3.2 0 0 0 -1.72-.25c-.55 0-.83-.08-.83-.28s.16-.33.52-.34a2 2 0 0 1 .3 0h4.41c.44 0 1.06 0 1.85-.09s1.5-.14 1.86-.15a8 8 0 0 1 4.93 1.24 4.43 4.43 0 0 1 1.91 3.68 4.73 4.73 0 0 1 -1.74 3.88 9.06 9.06 0 0 1 -5 1.92c-.2 0-.31.06-.33.11s.11.13.34.12q3.49.5 4.85 2.3c.91 1.21 1.56 3.41 1.94 6.62.23 1.81.87 2.7 1.93 2.67.33 0 .5-.08.49-.21a.11.11 0 0 0 0-.07 1.42 1.42 0 0 1 -.18-.59c0-.46.22-.7.71-.72s.78.31.79.86zm-7.34-16.41q-.13-4.74-4.24-4.62a2.63 2.63 0 0 0 -1.49.34 1.23 1.23 0 0 0 -.36 1.07l.24 8.42q3.18-.06 4.56-1.29a4.81 4.81 0 0 0 1.29-3.92z" fill="#221f20"/><path d="m248.09 403.76q0 .14.15 1.62c.09 1 .2 1.94.32 2.84l.15 1.08q-3.24.24-12.77 1.55l-2.27.32-1.51.2-.33.05q-.62.09-.66-.18a.2.2 0 0 1 .17-.23l1.24-.26c.56-.12.89-.29 1-.51a3.82 3.82 0 0 0 0-1.57l-2.58-18.52c-.08-.64-.23-1-.43-1.1a5 5 0 0 0 -1.82.07c-.35.05-.54 0-.56-.21s.2-.31.68-.38l5.62-.77 3.71-.51 4.6-.63a11.68 11.68 0 0 0 1.79-.38c.17.93.45 2.22.83 3.86l.33 1.4a1.9 1.9 0 0 1 .09.42c0 .22 0 .34-.25.37s-.45-.22-.64-.75q-1-2.9-2.55-3.49-1.14-.45-5.6.16l-2.7.37 1.33 9.66.79-.11c2.45-.33 3.92-.73 4.41-1.17s.7-1.58.65-3.41c0-.46.07-.71.27-.74s.38.15.44.55.11 1 .17 1.75.12 1.35.18 1.75c.32 2.34.57 3.94.77 4.81 0 .22.08.4.1.56s-.06.44-.3.47a.33.33 0 0 1 -.35-.23c-.08-.18-.26-.78-.53-1.79a2.65 2.65 0 0 0 -1.93-2.18 14.14 14.14 0 0 0 -3.1.23l-1.48.2 1.52 11a64.57 64.57 0 0 0 8.43-1.46c1.4-.52 2-2 1.9-4.49 0-.55.07-.84.31-.87s.32.19.41.65z" fill="#221f20"/><path d="m266.82 381.26c.06.21-.19.37-.73.49l-.7.18-.58.15c-.34.09-.53.2-.57.34a3.39 3.39 0 0 0 .19 1.09l4.75 18.49c.29 1.13.45 1.79.48 2s0 .31-.12.34-.31-.05-.54-.24l-5.65-4.95q-4.92-4.35-12.06-10.9l4.63 18a.58.58 0 0 0 .62.41 13.56 13.56 0 0 0 2.21-.41c.28-.08.45 0 .49.14s-.19.4-.75.54c-.19.05-.81.17-1.86.37l-1 .23-.55.21c-.38.14-1 .32-1.79.53l-.33.08c-.49.13-.76.09-.81-.1s.14-.34.57-.45a6.53 6.53 0 0 0 2.14-.81c.16-.19.15-.67-.05-1.45l-4.08-15.85c-.46-1.78-1.11-2.8-1.95-3.07a4 4 0 0 0 -1.92.15c-.55.15-.86.11-.92-.12s.09-.35.41-.43 1-.23 1.65-.36l1.08-.2.89-.27c.71-.18 1.38-.39 2-.62l15.33 13.68-3.67-14.29a10.42 10.42 0 0 0 -.35-1.19.43.43 0 0 0 -.33-.26 5.85 5.85 0 0 0 -1.57.29c-.78.2-1.19.2-1.24 0s.18-.39.69-.52l1.13-.29.9-.23.61-.16.57-.15 1-.25 1-.25c.46-.15.73-.15.78.11z" fill="#221f20"/><path d="m292 383.38a11 11 0 0 1 -.41 10 12.39 12.39 0 0 1 -6.53 5.19l-1.06.43-2.82 1.12-1.54.62-2.43 1-.47.19c-.38.15-.62.13-.7-.08s.21-.41.87-.67c.84-.34 1.31-.7 1.39-1.09a3.5 3.5 0 0 0 -.35-1.22l-6.63-16.6c-.4-1-.71-1.56-.93-1.66s-.78 0-1.68.39c-.47.18-.76.17-.85-.06s.08-.32.43-.46l.68-.27 1.38-.55 3.3-1.31a29.64 29.64 0 0 1 8.16-2.37 9.06 9.06 0 0 1 6 1.85 12.45 12.45 0 0 1 4.19 5.55zm-3.5 1.25q-2-5.13-5-6.72c-2-1.06-4.38-1-7.21.1-1.38.55-2.15 1-2.32 1.43a3.39 3.39 0 0 0 .41 1.56l6.62 16.43a6.53 6.53 0 0 0 .47 1 .52.52 0 0 0 .38.21 8.93 8.93 0 0 0 3.26-.87 7.26 7.26 0 0 0 4.42-4.49c.73-2.19.41-5.09-1.02-8.65z" fill="#221f20"/><path d="m316.59 382c.44.82 0 1.6-1.37 2.34a4.62 4.62 0 0 1 -4.58.06 5.14 5.14 0 0 1 -1.58-1.18q-.57-.68-2.58-3.58a4.07 4.07 0 0 0 -2.64-2 6.67 6.67 0 0 0 -3.77 1l5 9.16c.22.39.66.46 1.33.22.19-.08.65-.3 1.37-.68.26-.13.42-.13.51 0s0 .35-.35.53l-.35.19-2.53 1.39-1.48.81-1.34.74-1.14.62q-.63.34-.78.09c-.07-.14.17-.37.72-.7.9-.52 1.33-.9 1.29-1.16a3.2 3.2 0 0 0 -.51-1.2l-8.81-16q-.65-1.17-1-1.26a3.29 3.29 0 0 0 -1.64.56c-.48.26-.77.31-.87.14s0-.38.31-.55l.27-.11 3.92-2c.39-.21.92-.52 1.61-.93s1.27-.8 1.58-1a7.85 7.85 0 0 1 4.95-1.14 4.41 4.41 0 0 1 3.38 2.4 4.68 4.68 0 0 1 .21 4.25 9 9 0 0 1 -3.56 4c-.17.11-.25.2-.25.25s.16.06.36-.05c2.23-.76 4-.82 5.38-.16s2.93 2.33 4.73 5q1.55 2.27 2.94 1.5c.29-.16.4-.3.34-.41a.09.09 0 0 0 -.06 0 1.52 1.52 0 0 1 -.44-.45.63.63 0 0 1 .31-1 .73.73 0 0 1 1.12.31zm-14-11.26c-1.52-2.78-3.48-3.5-5.89-2.19a2.65 2.65 0 0 0 -1.16 1 1.25 1.25 0 0 0 .16 1.12l4.05 7.39c1.87-1 3-2.08 3.47-3.22a4.83 4.83 0 0 0 -.64-4.09z" fill="#221f20"/><path d="m331.05 366.72.87 1.37c.54.84 1.06 1.63 1.58 2.38l.63.89q-2.78 1.71-10.66 7.21l-1.88 1.31-1.25.88-.27.19c-.35.24-.57.28-.67.14a.21.21 0 0 1 0-.29c.06 0 .39-.3 1-.79.44-.37.66-.67.64-.9a3.91 3.91 0 0 0 -.74-1.39l-10.68-15.32c-.37-.52-.66-.78-.89-.78a5.09 5.09 0 0 0 -1.59.89c-.29.2-.48.22-.59.07s0-.37.43-.65l4.65-3.25 3.08-2.14 3.8-2.66a11.63 11.63 0 0 0 1.42-1.16c.58.76 1.41 1.78 2.5 3.07l.93 1.09a2.23 2.23 0 0 1 .27.34.28.28 0 0 1 -.05.44c-.2.14-.5 0-.91-.38q-2.24-2.1-3.87-1.94c-.81.08-2.44 1-4.91 2.7l-2.23 1.55 5.59 8 .65-.46q3-2.13 3.39-3.06c.23-.61-.1-1.72-1-3.32-.23-.41-.27-.67-.1-.78s.41-.05.64.28.54.82.95 1.48.72 1.15.95 1.48c1.36 1.93 2.32 3.25 2.88 3.93.14.17.26.32.35.45s.14.42-.05.56a.33.33 0 0 1 -.42 0c-.16-.13-.58-.57-1.29-1.35a2.63 2.63 0 0 0 -2.71-1.06 13.83 13.83 0 0 0 -2.66 1.62l-1.21.85 6.36 9.1a62.25 62.25 0 0 0 6.84-5.14q1.51-1.65-.36-4.86c-.28-.47-.31-.78-.11-.92s.43-.05.7.33z" fill="#221f20"/><path d="m346 346.57-4.6 4.26 4.19 4.53-.87.81-4.2-4.53-4.62 4.28-.81-.87 4.62-4.28-4.17-4.5.88-.82 4.17 4.5 4.6-4.25z" fill="none"/><path d="m369.9 324.27c.14.11.15.24 0 .4l-.48.59c-.67.76-.89 1.32-.67 1.67a15.8 15.8 0 0 0 2.15 1.91l.82.66a11.1 11.1 0 0 1 -.45 3.83 10.7 10.7 0 0 1 -1.91 3.3 11.09 11.09 0 0 1 -7.66 4.51 11.59 11.59 0 0 1 -8.56-2.94 12.6 12.6 0 0 1 -4.94-7.86 10.17 10.17 0 0 1 2.39-8.3 11.25 11.25 0 0 1 3.89-2.92 3.1 3.1 0 0 0 1.07-.75.86.86 0 0 0 -.1-1.14c-.17-.28-.21-.48-.11-.6a.23.23 0 0 1 .37 0l.51.48c.91.88 1.58 1.49 2 1.84l1.67 1.35.82.62c.39.37.51.65.35.84s-.31.14-.57 0a7.91 7.91 0 0 0 -5.12-1.74 5.72 5.72 0 0 0 -4.23 2.3 6.23 6.23 0 0 0 -1 6.19 15.4 15.4 0 0 0 5.29 6.84 14.35 14.35 0 0 0 7.61 3.52 6.34 6.34 0 0 0 5.81-2.41c1.11-1.37 1.48-2.64 1.11-3.79a5.27 5.27 0 0 0 -1.82-2.11c-.85-.69-1.43-1-1.71-1s-.81.54-1.57 1.52a2.12 2.12 0 0 1 -.41.43.21.21 0 0 1 -.26 0c-.18-.15-.13-.42.18-.79l.38-.47c.22-.24 1-1.15 2.2-2.73l1.75-2.17.31-.39.23-.28c.29-.43.51-.54.66-.41z" fill="#221f20"/><path d="m368.57 296.59c.15.09.12.31-.09.65 0 .06-.15.24-.35.56l-.24.4c-.29.47-.35.82-.16 1.07a3.22 3.22 0 0 0 .61.46l10.55 6.55q4.11 2.55 5 5.25t-1.2 6.1c-1.69 2.73-3.65 4.16-5.88 4.31q-2.22.15-5.78-2.06l-11.29-7a.89.89 0 0 0 -1.05.3 10.83 10.83 0 0 0 -.68 1c-.24.3-.44.4-.59.31s-.17-.29 0-.55l.31-.51.4-.65.51-.82 2.5-4 .21-.34c.2-.32.4-.42.61-.29a.24.24 0 0 1 .12.31c-.05.12-.27.51-.64 1.16a2 2 0 0 0 -.28.57.53.53 0 0 0 .2.56q.09.09 1.59 1l10.05 6.28c2.47 1.53 4.4 2.19 5.8 2a5.24 5.24 0 0 0 3.53-2.69q2.65-4.28-1.85-7.86-.67-.54-6.12-3.92l-1.61-1-2.24-1.39-1.94-1.21-.62-.38-.31-.19a.82.82 0 0 0 -1.12.11 7.62 7.62 0 0 0 -.76 1.11q-.35.56-.66.36c-.17-.1-.17-.29 0-.55l.23-.36 1.52-2.46.44-.7.33-.53.27-.43c.29-.47.51-.63.68-.53z" fill="#221f20"/><path d="m392.22 287c.08 0 .56.29 1.44.75s1.73.89 2.56 1.27l1 .47q-1.57 2.85-5.66 11.56l-1 2.07c-.32.68-.53 1.14-.65 1.38l-.14.3q-.27.57-.51.45a.19.19 0 0 1 -.1-.26c0-.06.18-.46.45-1.18.21-.54.25-.91.12-1.1a3.75 3.75 0 0 0 -1.34-.83l-16.91-8c-.58-.28-1-.36-1.16-.24a5 5 0 0 0 -.94 1.56q-.22.48-.48.36t.06-.78l2.41-5.13c.09-.18.62-1.31 1.6-3.39l2-4.2a11.13 11.13 0 0 0 .65-1.71c.88.37 2.11.84 3.7 1.41l1.35.49a3 3 0 0 1 .4.15c.2.1.26.23.17.41s-.43.26-1 .13c-2-.48-3.43-.39-4.32.24q-1 .7-2.91 4.78l-1.16 2.46 8.82 4.15.34-.72c1.06-2.23 1.53-3.68 1.42-4.33s-.94-1.45-2.5-2.4c-.4-.24-.56-.45-.47-.63s.33-.25.69-.08.88.44 1.56.81 1.21.64 1.57.81q3.21 1.52 4.45 2c.21.08.38.15.52.22s.34.29.24.51a.33.33 0 0 1 -.39.16 17.13 17.13 0 0 1 -1.78-.53 2.65 2.65 0 0 0 -2.88.43 13.73 13.73 0 0 0 -1.5 2.73l-.64 1.34 10.05 4.73a64.87 64.87 0 0 0 3.38-7.86c.33-1.46-.59-2.81-2.73-4-.48-.27-.66-.52-.56-.74s.36-.2.78-.02z" fill="#221f20"/><path d="m403.66 267.62c.87.3 1.06 1.18.56 2.65a4.62 4.62 0 0 1 -3.35 3.12 5.11 5.11 0 0 1 -2 .19q-.87-.1-4.32-.9a4 4 0 0 0 -3.28.31 6.66 6.66 0 0 0 -2.12 3.27l9.88 3.39c.42.14.79-.1 1.13-.73.08-.19.27-.66.56-1.43.09-.27.22-.37.39-.32s.22.28.1.63l-.13.38c-.07.19-.38 1.1-.94 2.73-.11.31-.29.85-.55 1.6s-.42 1.21-.49 1.44l-.42 1.22c-.16.46-.34.66-.52.6s-.13-.39.06-1c.31-1 .37-1.56.17-1.73a3.23 3.23 0 0 0 -1.18-.54l-17.31-5.95c-.84-.29-1.37-.37-1.6-.25s-.51.63-.84 1.52c-.18.52-.36.75-.55.69s-.25-.28-.14-.61a2.9 2.9 0 0 1 .13-.27l1.53-4.14c.14-.42.33-1 .56-1.77s.4-1.45.52-1.79a7.85 7.85 0 0 1 2.89-4.18 4.43 4.43 0 0 1 4.11-.5 4.77 4.77 0 0 1 3 3 9 9 0 0 1 0 5.35c0 .19-.05.31 0 .34s.16-.06.23-.27q1.69-3.09 3.87-3.74t6.87.52q2.67.65 3.18-.87c.11-.31.1-.49 0-.53a.08.08 0 0 0 -.08 0 1.66 1.66 0 0 1 -.62 0 .63.63 0 0 1 -.42-.92.72.72 0 0 1 1.12-.51zm-18 1.1q-4.48-1.55-5.82 2.35a2.72 2.72 0 0 0 -.2 1.51 1.26 1.26 0 0 0 .87.72l8 2.73q1.07-3 .39-4.72a4.77 4.77 0 0 0 -3.19-2.59z" fill="#221f20"/><path d="m406.91 257.05c.18.05.24.2.17.46l-.08.32c-.09.11-.49 1.56-1.19 4.35-.14.54-.25 1.08-.34 1.62-.05.29-.15.72-.3 1.3-.07.28-.2.39-.39.34s-.2-.34-.08-.9c.2-.87.22-1.4.07-1.59a4.15 4.15 0 0 0 -1.79-.7l-16.98-4.25a5 5 0 0 0 -1.82-.29c-.24.08-.52.64-.83 1.7-.13.4-.25.59-.39.56s-.22-.2-.15-.46l1.1-4.37c.08-.32.25-.95.5-1.87l.28-1.24c.09-.35.22-.5.4-.45s.15.54-.05 1.51c-.12.55-.1.9 0 1.06a3 3 0 0 0 1.3.52l17.23 4.33a5.5 5.5 0 0 0 2 .34c.3-.17.61-.83.95-2 .08-.24.21-.34.39-.29z" fill="#221f20"/><path d="m410.14 235c.91.15 1.25 1 1 2.51a4.63 4.63 0 0 1 -2.79 3.65 5.2 5.2 0 0 1 -1.89.51c-.59 0-2.06 0-4.41-.17a4 4 0 0 0 -3.18.86 6.61 6.61 0 0 0 -1.55 3.58l10.31 1.69c.44.07.77-.24 1-.92.06-.19.16-.69.31-1.49.05-.29.16-.41.33-.39s.27.24.21.61l-.07.39c0 .2-.18 1.15-.46 2.85-.06.33-.15.88-.28 1.67l-.24 1.5-.21 1.28c-.08.48-.22.7-.41.67s-.19-.35-.11-1c.15-1 .11-1.61-.12-1.73a3.13 3.13 0 0 0 -1.26-.34l-18.06-3c-.87-.15-1.41-.14-1.62 0a3.3 3.3 0 0 0 -.57 1.63c-.09.55-.23.81-.42.77s-.3-.22-.25-.57a1.9 1.9 0 0 1 .08-.29l.82-4.34c.07-.43.15-1 .25-1.84s.16-1.5.22-1.85a7.88 7.88 0 0 1 2.14-4.6 4.47 4.47 0 0 1 4-1.18 4.73 4.73 0 0 1 3.48 2.45 9 9 0 0 1 .93 5.26v.35s.15-.09.18-.31q1.16-3.34 3.19-4.33c1.36-.66 3.64-.88 6.86-.64 1.82.12 2.82-.35 3-1.39.06-.33 0-.51-.11-.53a.11.11 0 0 0 -.07 0 1.44 1.44 0 0 1 -.62.06.63.63 0 0 1 -.57-.83.72.72 0 0 1 .96-.55zm-17.51 4.08q-4.68-.76-5.34 3.3a2.66 2.66 0 0 0 0 1.52 1.24 1.24 0 0 0 1 .56l8.32 1.36c.36-2.09.23-3.66-.41-4.72a4.83 4.83 0 0 0 -3.57-2.01z" fill="#221f20"/><path d="m401.71 210.37-.15 6.26 6.16.16v1.19l-6.16-.15-.16 6.3h-1.19l.15-6.3-6.13-.15v-1.2l6.13.15.16-6.26z" fill="none"/></svg>